<?xml version="1.0" standalone="no"?><!DOCTYPE svg PUBLIC "-//W3C//DTD SVG 1.1//EN" "http://www.w3.org/Graphics/SVG/1.1/DTD/svg11.dtd"><svg t="1652337872695" class="icon" viewBox="0 0 1024 1024" version="1.1" xmlns="http://www.w3.org/2000/svg" p-id="2973" xmlns:xlink="http://www.w3.org/1999/xlink" width="200" height="200"><defs><style type="text/css">@font-face { font-family: feedback-iconfont; src: url("//at.alicdn.com/t/font_1031158_u69w8yhxdu.woff2?t=1630033759944") format("woff2"), url("//at.alicdn.com/t/font_1031158_u69w8yhxdu.woff?t=1630033759944") format("woff"), url("//at.alicdn.com/t/font_1031158_u69w8yhxdu.ttf?t=1630033759944") format("truetype"); }
</style></defs><path d="M940.156 460.853c-4.206 12.95-15.829 22.028-29.333 23.134-13.505 1.107-26.456-6.088-32.654-18.042-3.985-7.86-4.87-17.047-2.104-25.46h-0.11c18.264-55.788 5.092-117-34.536-160.613-39.517-43.502-99.512-62.873-157.404-50.586a33.553 33.553 0 0 1-25.348-4.65c-7.417-4.87-12.73-12.397-14.612-21.031-3.874-17.932 7.749-35.753 25.902-39.628 78.48-16.603 163.603 7.638 221.273 71.175 57.892 63.316 73.5 149.766 48.926 225.7z" fill="#FF9933" p-id="2974"></path><path d="M707.15 335.992c-7.417 1.55-15.276 0.222-21.807-3.984-6.53-4.096-10.847-10.627-12.618-18.043-3.321-15.497 6.53-30.773 22.249-34.093 39.627-8.413 80.694 4.76 107.813 34.536 28.227 30.993 35.643 73.056 23.688 110.027-2.324 7.306-7.416 13.283-14.39 16.715-6.862 3.431-14.832 4.095-22.138 1.77-15.275-4.87-23.577-21.141-18.596-36.195h-0.11c6.087-18.707 1.77-39.185-11.513-53.797-13.172-14.611-33.207-21.031-52.578-16.936z" fill="#FF9933" p-id="2975"></path><path d="M732.83 498.93c50.365 15.498 106.486 53.022 106.486 119.105 0 109.474-158.954 247.286-397.827 247.286-182.198 0-368.603-87.668-368.603-231.9 0-75.491 48.15-162.606 130.948-244.85 110.581-109.806 239.648-159.839 288.241-111.577 21.364 21.253 23.467 58.002 9.741 101.947-7.195 22.138 20.921 9.851 20.921 9.962 89.44-37.192 167.477-39.406 195.925 1.107 15.164 21.474 13.725 51.804-0.332 86.782-6.42 15.94 2.103 18.375 14.5 22.139z" fill="#E6162D" p-id="2976"></path><path d="M441.932 813.628c145.338-14.28 255.698-102.612 246.29-197.585-9.41-94.642-134.934-160.06-280.383-145.781-145.45 14.279-255.698 102.722-246.29 197.474 9.41 94.863 134.934 160.06 280.383 145.892z" fill="#FFFFFF" p-id="2977"></path><path d="M456.433 543.318c71.617 18.375 108.146 85.454 78.923 150.541-29.665 66.747-115.009 102.169-187.401 78.923-69.958-22.36-99.512-90.988-68.85-152.754 29.997-60.327 108.145-94.531 177.328-76.71z" fill="#1A1A1A" p-id="2978"></path><path d="M403.633 701.054c13.836-22.47 6.53-48.262-16.161-57.892-22.47-9.298-51.693 0.332-65.53 21.917-14.058 21.696-7.416 47.598 14.944 57.67 22.58 10.295 52.689 0.443 66.747-21.695z" fill="#FFFFFF" p-id="2979"></path></svg>